<?xml version="1.0" encoding="utf-8"?>
<!-- Generator: Adobe Illustrator 28.2.0, SVG Export Plug-In . SVG Version: 6.00 Build 0)  -->
<svg version="1.1" id="Layer_1" xmlns="http://www.w3.org/2000/svg" xmlns:xlink="http://www.w3.org/1999/xlink" x="0px" y="0px"
	 viewBox="0 0 226.77 226.77" style="enable-background:new 0 0 226.77 226.77;" xml:space="preserve">
<style type="text/css">
	.st0{filter:url(#Adobe_OpacityMaskFilter);}
	.st1{fill:#010101;}
	.st2{mask:url(#SVGID_1_);}
	.st3{clip-path:url(#SVGID_00000106118067162378196960000016889754246421697713_);}
	.st4{clip-path:url(#SVGID_00000134234579974376994490000014255374067898549650_);}
	.st5{fill:#7EC247;}
	.st6{fill:#F79226;}
	.st7{fill:#54A4DA;}
	.st8{fill:#A67C52;}
	.st9{filter:url(#Adobe_OpacityMaskFilter_00000158729972559280776370000000257243853132685451_);}
	.st10{mask:url(#SVGID_00000037681491676881140370000013131761805449751185_);}
	.st11{filter:url(#Adobe_OpacityMaskFilter_00000052792171290511040800000006637600255745491596_);}
	.st12{mask:url(#SVGID_00000043433938846754388280000004190331024810194337_);fill:#FFFFFF;}
	.st13{fill:#FFFFFF;}
	.st14{clip-path:url(#SVGID_00000003103733738192507960000012512248187482475161_);}
	.st15{clip-path:url(#SVGID_00000114041216142953666520000012816391760747170963_);}
	.st16{clip-path:url(#SVGID_00000005256590976106510910000004866486821993499797_);}
	.st17{clip-path:url(#SVGID_00000003805968913235896640000012831747996804064949_);}
	.st18{fill:#F8F8F8;}
	.st19{clip-path:url(#SVGID_00000062161191612232709750000007630824630374426511_);}
	.st20{clip-path:url(#SVGID_00000013901799155212028340000011409776274882722447_);}
	.st21{clip-path:url(#SVGID_00000156564106648851812960000006268492635738160771_);}
	.st22{clip-path:url(#SVGID_00000023980009063394634850000017231362083391514047_);}
	.st23{clip-path:url(#SVGID_00000065074052802205853790000017475987068975362181_);}
	.st24{clip-path:url(#SVGID_00000000920216975352413630000017336473048329697174_);}
	.st25{clip-path:url(#SVGID_00000077292417957146566300000001961407190086388374_);}
	.st26{clip-path:url(#SVGID_00000127760382250533892270000011986117500851444892_);}
	.st27{clip-path:url(#SVGID_00000041287619679420010070000008825876358661538460_);}
	.st28{clip-path:url(#SVGID_00000160912244094263111020000002425249621568103841_);}
	.st29{clip-path:url(#SVGID_00000093165619668540023400000016829657953115397777_);}
	.st30{clip-path:url(#SVGID_00000064326975002386316500000010158456985383836078_);}
	.st31{clip-path:url(#SVGID_00000000184567573717230600000002937876974057954216_);}
	.st32{clip-path:url(#SVGID_00000139291388676595115270000010438096330554095263_);}
	.st33{clip-path:url(#SVGID_00000152259697607558460640000008915729099532131771_);}
	.st34{clip-path:url(#SVGID_00000174591146297066920270000003507245546295309732_);}
</style>
<path class="st8" d="M224,118.99c-0.43-2.95-3.32-9.99-5.96-12.89c-1.04-1.14-3.26-2.7-5.63-4.67c-2.73-2.26-2.98-6.36-0.54-8.93
	c1.12-1.17,2.19-1.8,2.82-1.9c0.6-0.1,1.18,0.06,1.65,0.43l1.38,1.08c0.21,0.16,0.47,0.26,0.73,0.28l7.73,1.28
	c0,0-4.55-6.47-5.87-9.14c-1.32-2.67-6.24-8.48-9.65-10.41c-1.35-0.77-3.94-1.56-6.8-2.7c-3.3-1.3-4.8-5.13-3.27-8.33
	c0.7-1.46,1.53-2.39,2.1-2.68c0.54-0.27,1.14-0.3,1.7-0.1l1.65,0.6c0.25,0.09,0.52,0.11,0.79,0.04l7.75-1.18
	c0,0-6.33-4.74-8.41-6.88c-2.09-2.13-8.56-6.13-12.4-6.92c-1.52-0.31-4.23-0.27-7.31-0.46c-3.53-0.22-6.14-3.4-5.67-6.91
	c0.21-1.61,0.71-2.75,1.16-3.2c0.43-0.43,0.99-0.64,1.59-0.62l1.75,0.06c0.27,0.01,0.53-0.06,0.76-0.2l7.01-3.51
	c0,0-7.48-2.56-10.13-3.94c-2.64-1.38-10.03-3.19-13.93-2.75c-1.54,0.17-4.1,1.05-7.09,1.81c-3.43,0.88-6.9-1.33-7.54-4.81
	c-0.29-1.59-0.17-2.83,0.12-3.4c0.27-0.54,0.74-0.91,1.32-1.08l1.69-0.49c0.26-0.07,0.49-0.22,0.66-0.43l5.58-5.51
	c0,0-7.91-0.12-10.85-0.62c-2.94-0.5-10.53,0.07-14.1,1.68c-1.41,0.64-3.58,2.26-6.18,3.92c-2.99,1.9-6.97,0.87-8.66-2.25
	c-0.77-1.42-1.04-2.64-0.94-3.27c0.09-0.6,0.42-1.1,0.92-1.43l1.45-0.98c0.22-0.15,0.39-0.36,0.5-0.61l3.6-6.96
	c0,0-7.56,2.33-10.51,2.76s-9.99,3.32-12.89,5.96c-1.14,1.04-2.7,3.26-4.67,5.63c-2.26,2.73-6.36,2.98-8.93,0.54
	c-1.17-1.12-1.8-2.19-1.9-2.82c-0.1-0.6,0.06-1.18,0.43-1.65l1.08-1.38c0.16-0.21,0.26-0.47,0.28-0.73l1.28-7.73
	c0,0-6.47,4.55-9.14,5.87c-2.67,1.32-8.48,6.24-10.41,9.65c-0.77,1.35-1.56,3.94-2.7,6.8c-1.3,3.3-5.13,4.8-8.33,3.27
	c-1.46-0.7-2.39-1.53-2.68-2.1c-0.27-0.54-0.3-1.14-0.1-1.7l0.6-1.65c0.09-0.25,0.11-0.52,0.04-0.79l-1.18-7.75
	c0,0-4.74,6.33-6.88,8.41c-2.13,2.09-6.13,8.56-6.92,12.4c-0.31,1.52-0.27,4.23-0.46,7.31c-0.22,3.53-3.4,6.14-6.91,5.67
	c-1.61-0.21-2.75-0.71-3.2-1.16c-0.43-0.43-0.64-0.99-0.62-1.59l0.06-1.75c0.01-0.27-0.06-0.53-0.2-0.76l-3.51-7.01
	c0,0-2.56,7.48-3.94,10.13s-3.19,10.03-2.75,13.93c0.17,1.54,1.05,4.1,1.81,7.09c0.88,3.43-1.33,6.9-4.81,7.54
	c-1.59,0.29-2.83,0.17-3.4-0.12c-0.54-0.27-0.91-0.74-1.08-1.32l-0.49-1.69c-0.07-0.26-0.22-0.49-0.43-0.66l-5.51-5.58
	c0,0-0.12,7.91-0.62,10.85c-0.5,2.94,0.07,10.53,1.68,14.1c0.64,1.41,2.26,3.58,3.92,6.18c1.9,2.99,0.87,6.97-2.25,8.66
	c-1.42,0.77-2.64,1.04-3.27,0.94c-0.6-0.09-1.1-0.42-1.43-0.92l-0.98-1.45c-0.15-0.22-0.36-0.39-0.61-0.5L0,97.28
	c0,0,2.33,7.56,2.76,10.51c0.43,2.95,3.32,9.99,5.96,12.89c1.04,1.14,3.26,2.7,5.63,4.67c2.73,2.26,2.98,6.36,0.54,8.93
	c-1.12,1.17-2.19,1.8-2.82,1.9c-0.6,0.1-1.18-0.06-1.65-0.43l-1.38-1.08c-0.21-0.16-0.47-0.26-0.73-0.28l-7.73-1.28
	c0,0,4.55,6.47,5.87,9.14c1.32,2.67,6.24,8.48,9.65,10.41c1.35,0.77,3.94,1.56,6.8,2.7c3.3,1.3,4.8,5.13,3.27,8.33
	c-0.7,1.46-1.53,2.39-2.1,2.68c-0.54,0.27-1.14,0.3-1.7,0.1l-1.65-0.6c-0.25-0.09-0.52-0.11-0.79-0.04L12.18,167
	c0,0,6.33,4.74,8.41,6.88s8.56,6.13,12.4,6.92c1.52,0.31,4.23,0.27,7.31,0.46c3.53,0.22,6.14,3.4,5.67,6.91
	c-0.21,1.61-0.71,2.75-1.16,3.2c-0.43,0.43-0.99,0.64-1.59,0.62l-1.75-0.06c-0.27-0.01-0.53,0.06-0.76,0.2l-7.01,3.51
	c0,0,7.48,2.56,10.13,3.94c2.64,1.38,10.03,3.19,13.93,2.75c1.54-0.17,4.1-1.05,7.09-1.81c3.43-0.88,6.9,1.33,7.54,4.81
	c0.29,1.59,0.17,2.83-0.12,3.4c-0.27,0.54-0.74,0.91-1.32,1.08l-1.69,0.49c-0.26,0.07-0.49,0.22-0.66,0.43l-5.58,5.51
	c0,0,7.91,0.12,10.85,0.62c2.94,0.5,10.53-0.07,14.1-1.68c1.41-0.64,3.58-2.26,6.18-3.92c2.99-1.9,6.97-0.87,8.66,2.25
	c0.77,1.42,1.04,2.64,0.94,3.27c-0.09,0.6-0.42,1.1-0.92,1.43l-1.45,0.98c-0.22,0.15-0.39,0.36-0.5,0.61l-3.6,6.96
	c0,0,7.56-2.33,10.51-2.76c2.95-0.43,9.99-3.32,12.89-5.96c1.14-1.04,2.7-3.26,4.67-5.63c2.26-2.73,6.36-2.98,8.93-0.54
	c1.17,1.12,1.8,2.19,1.9,2.82c0.1,0.6-0.06,1.18-0.43,1.65l-1.08,1.38c-0.16,0.21-0.26,0.47-0.28,0.73l-1.28,7.73
	c0,0,6.47-4.55,9.14-5.87c2.67-1.32,8.48-6.24,10.41-9.65c0.77-1.35,1.56-3.94,2.7-6.8c1.3-3.3,5.13-4.8,8.33-3.27
	c1.46,0.7,2.39,1.53,2.68,2.1c0.27,0.54,0.3,1.14,0.1,1.7l-0.6,1.65c-0.09,0.25-0.11,0.52-0.04,0.79l1.18,7.75
	c0,0,4.74-6.33,6.88-8.41c2.13-2.09,6.13-8.56,6.92-12.4c0.31-1.52,0.27-4.23,0.46-7.31c0.22-3.53,3.4-6.14,6.91-5.67
	c1.61,0.21,2.75,0.71,3.2,1.16c0.43,0.43,0.64,0.99,0.62,1.59l-0.06,1.75c-0.01,0.27,0.06,0.53,0.2,0.76l3.51,7.01
	c0,0,2.56-7.48,3.94-10.13c1.38-2.64,3.19-10.03,2.75-13.93c-0.17-1.54-1.05-4.1-1.81-7.09c-0.88-3.43,1.33-6.9,4.81-7.54
	c1.59-0.29,2.83-0.17,3.4,0.12c0.54,0.27,0.91,0.74,1.08,1.32l0.49,1.69c0.07,0.26,0.22,0.49,0.43,0.66l5.51,5.58
	c0,0,0.12-7.91,0.62-10.85c0.5-2.94-0.07-10.53-1.68-14.1c-0.64-1.41-2.26-3.58-3.92-6.18c-1.9-2.99-0.87-6.97,2.25-8.66
	c1.42-0.77,2.64-1.04,3.27-0.94c0.6,0.09,1.1,0.42,1.43,0.92l0.98,1.45c0.15,0.22,0.36,0.39,0.61,0.5l6.96,3.6
	C226.77,129.49,224.44,121.94,224,118.99z"/>
</svg>
