<?xml version="1.0" encoding="utf-8"?>
<!-- Generator: Adobe Illustrator 28.2.0, SVG Export Plug-In . SVG Version: 6.00 Build 0)  -->
<svg version="1.1" id="Layer_1" xmlns="http://www.w3.org/2000/svg" xmlns:xlink="http://www.w3.org/1999/xlink" x="0px" y="0px"
	 viewBox="0 0 850.39 850.39" style="enable-background:new 0 0 850.39 850.39;" xml:space="preserve">
<style type="text/css">
	.st0{clip-path:url(#SVGID_00000005262829033152326620000003467467941760570259_);}
	.st1{clip-path:url(#SVGID_00000034061070668531735390000003695693875376680380_);}
	.st2{clip-path:url(#SVGID_00000013184050430488200960000015577728882600401298_);}
	.st3{clip-path:url(#SVGID_00000094594574140461760470000015523856581805598106_);}
	.st4{clip-path:url(#SVGID_00000149362718936777017090000000790560365770109088_);}
	.st5{clip-path:url(#SVGID_00000000935471163215861330000002981709746525836986_);}
	.st6{clip-path:url(#SVGID_00000179638989335534506780000003696317804051747253_);}
	.st7{clip-path:url(#SVGID_00000041256551857585626210000003557652711798735507_);}
	.st8{clip-path:url(#SVGID_00000020391882189213790980000004330951188134855585_);}
	.st9{clip-path:url(#SVGID_00000009560868406716483180000009373968212702096044_);}
	.st10{clip-path:url(#SVGID_00000009591811803554257250000008483576384013545889_);}
	.st11{clip-path:url(#SVGID_00000175281231629732256090000009795104900765386425_);}
	.st12{fill:#F8F8F8;}
	.st13{clip-path:url(#SVGID_00000173859615874017896790000008858140587625540513_);}
	.st14{clip-path:url(#SVGID_00000052065427109789464740000005349566667359041965_);}
	.st15{clip-path:url(#SVGID_00000016759220534134449040000012718347829357270963_);}
	.st16{clip-path:url(#SVGID_00000045605752180062502100000007466759861326764176_);}
	.st17{clip-path:url(#SVGID_00000157285715519809862930000010371886422445542305_);}
	.st18{clip-path:url(#SVGID_00000152252871078940675300000004321627126014320827_);}
	.st19{fill:url(#SVGID_00000027596411812562340180000001437042710457172105_);}
	.st20{clip-path:url(#SVGID_00000114780136410091747900000015088573866664812433_);}
	.st21{clip-path:url(#SVGID_00000056411630144475108980000010999812587194849714_);}
	.st22{clip-path:url(#SVGID_00000038374451380250073080000012709047185805328256_);}
	.st23{clip-path:url(#SVGID_00000101790260325805171330000003687545781790697660_);}
	.st24{clip-path:url(#SVGID_00000114791279795635635240000011566799903266378684_);}
	.st25{clip-path:url(#SVGID_00000165945107179531844530000008428971643214494369_);}
	.st26{clip-path:url(#SVGID_00000093872843126374691250000000745894401098087579_);}
	.st27{clip-path:url(#SVGID_00000162327998496282541730000002181428370926825611_);}
	.st28{clip-path:url(#SVGID_00000034805747756869409130000016798331165026596245_);}
	.st29{clip-path:url(#SVGID_00000001663502397929225200000016837444780429299887_);}
	.st30{clip-path:url(#SVGID_00000062881935477292117700000001123121368035558069_);}
	.st31{clip-path:url(#SVGID_00000075151293051053114220000007463660658461487754_);}
	.st32{clip-path:url(#SVGID_00000067953840094926482220000010794518241976002701_);}
	.st33{clip-path:url(#SVGID_00000026123248057166945640000016029955415335928966_);}
	.st34{clip-path:url(#SVGID_00000150088741367732992260000005187842515604606878_);}
	.st35{clip-path:url(#SVGID_00000171687756673245538360000007129854918989925567_);}
	.st36{clip-path:url(#SVGID_00000183232182233015870430000000376657341336256930_);}
	.st37{clip-path:url(#SVGID_00000008848886772415822310000005059838469468564158_);}
	.st38{fill:url(#SVGID_00000070102776119072784180000004557740382628247425_);}
</style>
<g>
	<path class="st12" d="M349.35,216.22c-14.84,19.79-21.96,46.23-21.34,79.32H204.63c1.23-33.4,6.96-65.09,17.16-95.09
		c10.82-26.28,27.83-50.56,51.03-72.83c17.32-15.77,37.88-27.83,61.69-36.18c23.81-8.35,53.03-12.52,87.67-12.52
		c64.32,0,116.2,16.63,155.63,49.87c39.43,33.25,59.14,77.86,59.14,133.83c0,39.59-11.76,72.99-35.25,100.2
		c-14.84,17.01-30.31,28.61-46.39,34.79c12.06,0,29.38,10.36,51.95,31.08c33.7,31.24,50.56,73.91,50.56,128.03
		c0,56.9-19.71,106.92-59.14,150.06c-39.43,43.14-97.8,64.71-175.11,64.71c-95.25,0-161.43-31.08-198.54-93.24
		c-19.48-33.09-30.31-76.38-32.47-129.88h129.88c0,26.9,4.33,49.17,12.99,66.8c16.08,32.47,45.3,48.71,87.67,48.71
		c25.98,0,48.63-8.89,67.96-26.67c19.32-17.78,28.99-43.37,28.99-76.77c0-44.22-17.94-73.75-53.81-88.6
		c-20.41-8.35-52.58-12.52-96.48-12.52v-94.63c42.98-0.62,72.98-4.79,89.99-12.52c29.38-12.99,44.07-39.27,44.07-78.86
		c0-25.67-7.5-46.54-22.5-62.62c-15-16.08-36.11-24.12-63.32-24.12C386.77,186.54,363.89,196.44,349.35,216.22z"/>
</g>
</svg>
