<?xml version="1.0" encoding="utf-8"?>
<!-- Generator: Adobe Illustrator 28.2.0, SVG Export Plug-In . SVG Version: 6.00 Build 0)  -->
<svg version="1.1" id="Layer_1" xmlns="http://www.w3.org/2000/svg" xmlns:xlink="http://www.w3.org/1999/xlink" x="0px" y="0px"
	 viewBox="0 0 850.39 850.39" style="enable-background:new 0 0 850.39 850.39;" xml:space="preserve">
<style type="text/css">
	.st0{clip-path:url(#SVGID_00000100359550074311754290000017331552740920794252_);}
	.st1{clip-path:url(#SVGID_00000158005039141979153710000005468138651807647114_);}
	.st2{clip-path:url(#SVGID_00000106856285849822137920000017606152707399657138_);}
	.st3{clip-path:url(#SVGID_00000065033817109331018150000005890319099398799271_);}
	.st4{clip-path:url(#SVGID_00000119107395547604809200000016580175725892970676_);}
	.st5{clip-path:url(#SVGID_00000075876884206184340120000008923058647058136509_);}
	.st6{clip-path:url(#SVGID_00000057135600119094934760000015045902063884833935_);}
	.st7{clip-path:url(#SVGID_00000129191957914421696070000010955947257815773600_);}
	.st8{clip-path:url(#SVGID_00000043422813504567129360000005978390266327260546_);}
	.st9{clip-path:url(#SVGID_00000087394330006219782990000008503171076897743797_);}
	.st10{clip-path:url(#SVGID_00000040545336797509234520000004443008950882109618_);}
	.st11{clip-path:url(#SVGID_00000174595682505417989700000014430090441907844263_);}
	.st12{fill:#F8F8F8;}
	.st13{clip-path:url(#SVGID_00000024001281787770992820000015698518235202068875_);}
	.st14{clip-path:url(#SVGID_00000162318530693633767750000001546157663373308589_);}
	.st15{clip-path:url(#SVGID_00000036216863280122342170000009472426118511380918_);}
	.st16{clip-path:url(#SVGID_00000085216395122704697700000010224349533739502229_);}
	.st17{clip-path:url(#SVGID_00000170266386967004258120000013321949552833036416_);}
	.st18{clip-path:url(#SVGID_00000015332670120389158810000011640126743678645947_);}
	.st19{fill:url(#SVGID_00000098911513016503373880000005829707597285969298_);}
	.st20{clip-path:url(#SVGID_00000078029943857863546790000014078308866473627326_);}
	.st21{clip-path:url(#SVGID_00000005242510794814119890000010227771545280166073_);}
	.st22{clip-path:url(#SVGID_00000077309279345659820710000013473978509791047862_);}
	.st23{clip-path:url(#SVGID_00000023282420390031534360000005790932914173942920_);}
	.st24{clip-path:url(#SVGID_00000157993544426544891850000003655588955391262622_);}
	.st25{clip-path:url(#SVGID_00000060716866681352684330000011166123690465205919_);}
	.st26{clip-path:url(#SVGID_00000102520258883146011150000014923404057508896155_);}
	.st27{clip-path:url(#SVGID_00000106860027551229115680000015061715299974526622_);}
	.st28{clip-path:url(#SVGID_00000165945705524525799480000007062167516587522956_);}
	.st29{clip-path:url(#SVGID_00000168810927016448023950000000406993675721531829_);}
	.st30{clip-path:url(#SVGID_00000165236814460678992860000017461774931546079671_);}
	.st31{clip-path:url(#SVGID_00000060020408433620819740000018131118516589633204_);}
	.st32{clip-path:url(#SVGID_00000083080746452366778910000013062658047225757614_);}
	.st33{clip-path:url(#SVGID_00000084529214283833986390000015795149278855691924_);}
	.st34{clip-path:url(#SVGID_00000003091485792988815220000012094242824341441454_);}
	.st35{clip-path:url(#SVGID_00000114031367857821257270000010132603431425401238_);}
	.st36{clip-path:url(#SVGID_00000034047974654131960860000002309676345521914813_);}
	.st37{clip-path:url(#SVGID_00000143590269139021657440000010104271534760124343_);}
	.st38{fill:url(#SVGID_00000027572529888486070610000012167303314383515583_);}
</style>
<g>
	<path class="st12" d="M453.49,319.44c59.68,0,108.62,20.26,146.81,60.77c38.19,40.52,57.29,92.31,57.29,155.4
		c0,62.78-18.71,118.13-56.13,166.06c-37.42,47.94-95.56,71.9-174.41,71.9c-84.74,0-147.21-35.41-187.4-106.23
		c-31.24-55.35-46.85-126.79-46.85-214.31c0-51.33,2.16-93.08,6.49-125.24c7.73-57.21,22.73-104.83,45-142.87
		c19.17-32.47,44.3-58.6,75.38-78.39c31.08-19.79,68.26-29.69,111.56-29.69c62.46,0,112.26,16,149.37,48.01s57.98,74.61,62.62,127.8
		H511.48c0-10.82-4.17-22.73-12.52-35.72c-14.23-21.03-35.72-31.54-64.48-31.54c-42.99,0-73.6,24.12-91.85,72.36
		c-9.9,26.6-16.7,65.87-20.41,117.82c16.39-19.48,35.41-33.7,57.06-42.68C400.92,323.92,425.66,319.44,453.49,319.44z
		 M364.43,445.61c-25.98,20.11-38.96,52.58-38.96,97.41c0,36.18,9.74,65.72,29.22,88.6c19.48,22.89,44.22,34.33,74.22,34.33
		c29.38,0,52.49-11.05,69.35-33.17c16.85-22.11,25.28-50.79,25.28-86.05c0-39.27-9.59-69.35-28.76-90.22
		c-19.18-20.87-42.68-31.31-70.51-31.31C401.69,425.2,381.75,432,364.43,445.61z"/>
</g>
</svg>
