<?xml version="1.0" encoding="utf-8"?>
<!-- Generator: Adobe Illustrator 28.2.0, SVG Export Plug-In . SVG Version: 6.00 Build 0)  -->
<svg version="1.1" id="Layer_1" xmlns="http://www.w3.org/2000/svg" xmlns:xlink="http://www.w3.org/1999/xlink" x="0px" y="0px"
	 viewBox="0 0 850.39 850.39" style="enable-background:new 0 0 850.39 850.39;" xml:space="preserve">
<style type="text/css">
	.st0{clip-path:url(#SVGID_00000029046584876992054200000005125810443320521893_);}
	.st1{clip-path:url(#SVGID_00000155855839220403760350000011456577073816035517_);}
	.st2{clip-path:url(#SVGID_00000024687133248593686700000001020063573803294895_);}
	.st3{clip-path:url(#SVGID_00000067196631856730111540000010490042110759829670_);}
	.st4{clip-path:url(#SVGID_00000165223868825449396910000004736978744728918171_);}
	.st5{clip-path:url(#SVGID_00000115505853579345156530000013815994153746290096_);}
	.st6{clip-path:url(#SVGID_00000079472992633439665630000013214977940931483271_);}
	.st7{clip-path:url(#SVGID_00000141439279313128371140000002367488027352220071_);}
	.st8{clip-path:url(#SVGID_00000106855063721338023910000006016786131556773026_);}
	.st9{clip-path:url(#SVGID_00000122701732594531321550000009354485520085423024_);}
	.st10{clip-path:url(#SVGID_00000053513919669350874630000013245154333903617722_);}
	.st11{clip-path:url(#SVGID_00000112618835431672931040000017288230013329988248_);}
	.st12{fill:#F8F8F8;}
	.st13{clip-path:url(#SVGID_00000083078901904292865320000005731902760684891008_);}
	.st14{clip-path:url(#SVGID_00000132052519240348207750000014604027644069980343_);}
	.st15{clip-path:url(#SVGID_00000080182408226619257640000006229865396572915349_);}
	.st16{clip-path:url(#SVGID_00000078730581219272185720000002394861679345664674_);}
	.st17{clip-path:url(#SVGID_00000159452964960144445890000016146237588743821194_);}
	.st18{clip-path:url(#SVGID_00000071526477056683538270000011423931589616185997_);}
	.st19{fill:url(#SVGID_00000072278860515710351550000016984100319309589685_);}
	.st20{clip-path:url(#SVGID_00000031200532480156055290000000626591223580578219_);}
	.st21{clip-path:url(#SVGID_00000039815250636563397710000008323915940714636966_);}
	.st22{clip-path:url(#SVGID_00000007403689935304971860000017268953607344917942_);}
	.st23{clip-path:url(#SVGID_00000025408138647953691330000016217018244312191648_);}
	.st24{clip-path:url(#SVGID_00000031930116295027035610000008616085695091250836_);}
	.st25{clip-path:url(#SVGID_00000018236532776375736030000001474295287929903515_);}
	.st26{clip-path:url(#SVGID_00000172430132730190268610000001830241719048465836_);}
	.st27{clip-path:url(#SVGID_00000176006836565262909960000015841864751864489611_);}
	.st28{clip-path:url(#SVGID_00000091730870003032672910000000515705859474912187_);}
	.st29{clip-path:url(#SVGID_00000082361201333879869110000007708613235077490568_);}
	.st30{clip-path:url(#SVGID_00000074423687612080252580000005055127211373358740_);}
	.st31{clip-path:url(#SVGID_00000039843935785660790850000016710534088360166541_);}
	.st32{clip-path:url(#SVGID_00000070082550212038204650000013334314257218176687_);}
	.st33{clip-path:url(#SVGID_00000109008287743568709380000001638062953354449851_);}
	.st34{clip-path:url(#SVGID_00000141452199369813226150000016364288807120670860_);}
	.st35{clip-path:url(#SVGID_00000176015046987729664340000002280666997973614497_);}
	.st36{clip-path:url(#SVGID_00000034796065756845459720000006445845004442403730_);}
	.st37{clip-path:url(#SVGID_00000134958333283325611940000014029496973148083077_);}
	.st38{fill:url(#SVGID_00000134227946032912435350000013767031276321850767_);}
</style>
<g>
	<path class="st12" d="M249.62,712.1c-38.66-39.58-57.98-87.67-57.98-144.26c0-37.73,8.58-71.9,25.74-102.51
		c17.16-30.62,42.29-53.65,75.38-69.12c-32.47-21.64-53.58-45.07-63.32-70.28c-9.74-25.2-14.61-48.78-14.61-70.74
		c0-48.86,18.39-90.53,55.2-125.01c36.8-34.48,88.75-51.72,155.86-51.72c67.1,0,119.05,17.24,155.86,51.72
		c36.8,34.49,55.2,76.15,55.2,125.01c0,21.96-4.87,45.54-14.61,70.74c-9.74,25.21-30.85,47.08-63.32,65.64
		c33.09,18.55,57.98,43.14,74.68,73.75s25.05,64.79,25.05,102.51c0,56.59-20.95,104.76-62.85,144.49
		c-41.91,39.74-100.43,59.61-175.57,59.61S288.28,751.99,249.62,712.1z M328.94,559.02c0,33.09,8.58,58.76,25.74,77
		c17.16,18.25,40.89,27.37,71.2,27.37c30.3,0,54.04-9.12,71.21-27.37c17.16-18.24,25.74-43.91,25.74-77
		c0-34.33-8.74-60.38-26.21-78.16c-17.47-17.78-41.05-26.67-70.74-26.67s-53.27,8.89-70.74,26.67
		C337.68,498.65,328.94,524.7,328.94,559.02z M363.73,329.87c14.84,15.47,35.56,23.19,62.16,23.19c26.9,0,47.7-7.73,62.39-23.19
		c14.68-15.46,22.03-35.41,22.03-59.84c0-26.59-7.35-47.39-22.03-62.39c-14.69-15-35.49-22.5-62.39-22.5
		c-26.6,0-47.39,7.5-62.39,22.5c-15,15-22.5,35.8-22.5,62.39C341.01,294.47,348.58,314.41,363.73,329.87z"/>
</g>
</svg>
