<?xml version="1.0" encoding="utf-8"?>
<!-- Generator: Adobe Illustrator 28.2.0, SVG Export Plug-In . SVG Version: 6.00 Build 0)  -->
<svg version="1.1" id="Layer_1" xmlns="http://www.w3.org/2000/svg" xmlns:xlink="http://www.w3.org/1999/xlink" x="0px" y="0px"
	 viewBox="0 0 850.39 850.39" style="enable-background:new 0 0 850.39 850.39;" xml:space="preserve">
<style type="text/css">
	.st0{clip-path:url(#SVGID_00000055706328049492076030000006419885157724396707_);}
	.st1{clip-path:url(#SVGID_00000183229423723955315120000003947934521445311149_);}
	.st2{clip-path:url(#SVGID_00000145741544588225816980000008989838506842366900_);}
	.st3{clip-path:url(#SVGID_00000021826147578735678850000000432164148208123790_);}
	.st4{clip-path:url(#SVGID_00000176738406095987132470000002819259689204363931_);}
	.st5{clip-path:url(#SVGID_00000088818658290042449530000001084297089114921107_);}
	.st6{clip-path:url(#SVGID_00000136373258848703954100000011661276882596122009_);}
	.st7{clip-path:url(#SVGID_00000179633092642581713480000009269600277184292020_);}
	.st8{clip-path:url(#SVGID_00000090973259473410327120000011071503543717788569_);}
	.st9{clip-path:url(#SVGID_00000037652725783264406570000000730072252420531361_);}
	.st10{clip-path:url(#SVGID_00000175307918400839828770000016932171738904084363_);}
	.st11{clip-path:url(#SVGID_00000165206629527020276960000000540961398862602677_);}
	.st12{fill:#F8F8F8;}
	.st13{clip-path:url(#SVGID_00000183935294458025087000000003009122908112565386_);}
	.st14{clip-path:url(#SVGID_00000049918211200837956770000011611358128904524171_);}
	.st15{clip-path:url(#SVGID_00000010309592964457835220000018055506308834207108_);}
	.st16{clip-path:url(#SVGID_00000017512823251522743160000007681265214776297366_);}
	.st17{clip-path:url(#SVGID_00000113345548037383716620000000809797365090545317_);}
	.st18{clip-path:url(#SVGID_00000035493361388674337290000004385599721793344946_);}
	.st19{fill:url(#SVGID_00000170258993486351801040000012926287070641402012_);}
	.st20{clip-path:url(#SVGID_00000142886335978575082780000016142184026170629032_);}
	.st21{clip-path:url(#SVGID_00000090977030632653096770000013629364871996648843_);}
	.st22{clip-path:url(#SVGID_00000026137018136714004190000011324242922823940008_);}
	.st23{clip-path:url(#SVGID_00000160192744729485893300000017901520617034338226_);}
	.st24{clip-path:url(#SVGID_00000127031608050341644630000011476795304882374846_);}
	.st25{clip-path:url(#SVGID_00000075146559623331254020000002276612485242558616_);}
	.st26{clip-path:url(#SVGID_00000046341255364398330810000001926166276402948224_);}
	.st27{clip-path:url(#SVGID_00000180330895078824653010000017483155662419877258_);}
	.st28{clip-path:url(#SVGID_00000101083125651868943690000008392003040792323263_);}
	.st29{clip-path:url(#SVGID_00000161602291487262270330000017953754979255179657_);}
	.st30{clip-path:url(#SVGID_00000134249495324270808790000002482857958527001236_);}
	.st31{clip-path:url(#SVGID_00000106839947259338427030000016392780481191548330_);}
	.st32{clip-path:url(#SVGID_00000039124754271959201660000017403665813256870534_);}
	.st33{clip-path:url(#SVGID_00000100371445155934850370000017950294587323963274_);}
	.st34{clip-path:url(#SVGID_00000025442585550710316760000009779224196061719706_);}
	.st35{clip-path:url(#SVGID_00000002362545376121777050000007574596430279741616_);}
	.st36{clip-path:url(#SVGID_00000143591504726638947540000002132193151559215547_);}
	.st37{clip-path:url(#SVGID_00000044137550963034164670000001808664227339916222_);}
	.st38{fill:url(#SVGID_00000155866314095112394500000001700102357244952193_);}
</style>
<g>
	<path class="st12" d="M420.79,414.3c-16.08,0-30,2.02-41.75,6.03c-20.72,7.42-36.34,21.19-46.85,41.28l-118.75-5.57l47.31-371.56
		h370.63v112.26H356.31l-24.12,147.05c20.41-13.29,36.33-22.11,47.78-26.44c19.17-7.11,42.52-10.67,70.04-10.67
		c55.66,0,104.21,18.71,145.65,56.13c41.44,37.42,62.16,91.85,62.16,163.28c0,62.16-19.95,117.67-59.84,166.53
		c-39.89,48.87-99.58,73.29-179.05,73.29c-64.01,0-116.59-17.16-157.71-51.49c-41.13-34.33-64.01-83.03-68.65-146.12h131.74
		c5.25,28.76,15.31,50.95,30.15,66.56c14.84,15.62,36.49,23.43,64.94,23.43c32.78,0,57.75-11.52,74.92-34.56
		c17.16-23.03,25.74-52.03,25.74-86.98c0-34.33-8.04-63.32-24.12-86.98C479.85,426.12,454.8,414.3,420.79,414.3z"/>
</g>
</svg>
