<?xml version="1.0" encoding="utf-8"?>
<!-- Generator: Adobe Illustrator 28.2.0, SVG Export Plug-In . SVG Version: 6.00 Build 0)  -->
<svg version="1.1" id="Layer_1" xmlns="http://www.w3.org/2000/svg" xmlns:xlink="http://www.w3.org/1999/xlink" x="0px" y="0px"
	 viewBox="0 0 850.39 850.39" style="enable-background:new 0 0 850.39 850.39;" xml:space="preserve">
<style type="text/css">
	.st0{clip-path:url(#SVGID_00000035501405502148646560000005309456222292299913_);}
	.st1{clip-path:url(#SVGID_00000152227490712036746940000008164076376761416893_);}
	.st2{clip-path:url(#SVGID_00000153689997717695380350000006665906898232119697_);}
	.st3{clip-path:url(#SVGID_00000153674383217827785710000002728881663228068001_);}
	.st4{clip-path:url(#SVGID_00000083052480175001074000000010491136090034283441_);}
	.st5{clip-path:url(#SVGID_00000062902640052075575490000001432994743256079002_);}
	.st6{clip-path:url(#SVGID_00000175317666877460994760000008497560631287034299_);}
	.st7{clip-path:url(#SVGID_00000090988981413800800950000016574565992000638380_);}
	.st8{clip-path:url(#SVGID_00000075850482550833017070000009453702350014255785_);}
	.st9{clip-path:url(#SVGID_00000021797466606746800300000009507362360950658480_);}
	.st10{clip-path:url(#SVGID_00000068659083738069577000000005433168723345044906_);}
	.st11{clip-path:url(#SVGID_00000139271412758886044680000002420682866603198127_);}
	.st12{fill:#F8F8F8;}
	.st13{clip-path:url(#SVGID_00000007390999357420872610000001885863234686315924_);}
	.st14{clip-path:url(#SVGID_00000102518053219010986300000001038319482499476903_);}
	.st15{clip-path:url(#SVGID_00000060024354387158457580000004989717960653861274_);}
	.st16{clip-path:url(#SVGID_00000112603606313838392870000000171168118114501784_);}
	.st17{clip-path:url(#SVGID_00000066478177653247324570000010253491749357218985_);}
	.st18{clip-path:url(#SVGID_00000085222386320502482200000006943684724974315158_);}
	.st19{fill:url(#SVGID_00000142886253508712169530000000745608451191327377_);}
	.st20{clip-path:url(#SVGID_00000039128475197479092650000003724603845127014079_);}
	.st21{clip-path:url(#SVGID_00000160909912181984171370000016948915811148885907_);}
	.st22{clip-path:url(#SVGID_00000073704149692740912470000012573209655087667607_);}
	.st23{clip-path:url(#SVGID_00000118373315397938939230000008728685604767292552_);}
	.st24{clip-path:url(#SVGID_00000093141750792117324800000002953916235744678292_);}
	.st25{clip-path:url(#SVGID_00000127729762823508549630000002355494723420442515_);}
	.st26{clip-path:url(#SVGID_00000176017161525736501750000000713586877321380008_);}
	.st27{clip-path:url(#SVGID_00000073698996339476341600000013764338910658088090_);}
	.st28{clip-path:url(#SVGID_00000140711780519599012160000007291702352559030431_);}
	.st29{clip-path:url(#SVGID_00000082368212556196450700000001733900256925301400_);}
	.st30{clip-path:url(#SVGID_00000126312216787612312860000008347502415494797472_);}
	.st31{clip-path:url(#SVGID_00000155836221177846493250000002165064291575852940_);}
	.st32{clip-path:url(#SVGID_00000005952761956781617160000008619967901533553802_);}
	.st33{clip-path:url(#SVGID_00000163069783940914302380000004706709334253740694_);}
	.st34{clip-path:url(#SVGID_00000026157261560107635420000015405643718308433811_);}
	.st35{clip-path:url(#SVGID_00000121271715481998084920000005238221453193118882_);}
	.st36{clip-path:url(#SVGID_00000000934382915698292340000008735488440453632410_);}
	.st37{clip-path:url(#SVGID_00000053517651034363232030000018416670963870390656_);}
	.st38{fill:url(#SVGID_00000083769315664172466560000015588845710171617199_);}
</style>
<g>
	<path class="st12" d="M409.89,774.02c-50.41,0-95.72-14.92-135.91-44.76c-40.2-29.84-63.24-73.36-69.12-130.58H336.6
		c3.09,19.79,11.44,35.88,25.05,48.24c13.6,12.37,31.7,18.55,54.27,18.55c43.6,0,74.22-24.12,91.85-72.36
		c9.58-26.59,15.61-65.41,18.09-116.43c-12.06,15.16-24.9,26.75-38.5,34.79c-24.74,14.84-55.2,22.27-91.38,22.27
		c-53.5,0-100.97-18.47-142.41-55.43c-41.44-36.95-62.16-90.22-62.16-159.8c0-72.05,20.79-130.42,62.39-175.11
		c41.59-44.68,95.63-67.03,162.12-67.03c102.36,0,172.56,45.31,210.6,135.91c21.64,51.34,32.47,118.91,32.47,202.71
		c0,81.34-10.36,149.21-31.08,203.64C588.32,722.23,515.65,774.02,409.89,774.02z M363.5,205.79
		c-25.36,19.79-38.04,53.34-38.04,100.66c0,39.89,8.12,69.81,24.35,89.76c16.23,19.95,41.2,29.92,74.91,29.92
		c18.24,0,35.41-5.25,51.49-15.77c29.99-19.17,45-52.42,45-99.73c0-38.04-8.89-68.19-26.67-90.45
		c-17.79-22.27-42.14-33.4-73.06-33.4C398.91,186.77,379.58,193.11,363.5,205.79z"/>
</g>
</svg>
