<?xml version="1.0" encoding="utf-8"?>
<!-- Generator: Adobe Illustrator 28.2.0, SVG Export Plug-In . SVG Version: 6.00 Build 0)  -->
<svg version="1.1" id="Layer_1" xmlns="http://www.w3.org/2000/svg" xmlns:xlink="http://www.w3.org/1999/xlink" x="0px" y="0px"
	 viewBox="0 0 850.39 850.39" style="enable-background:new 0 0 850.39 850.39;" xml:space="preserve">
<style type="text/css">
	.st0{clip-path:url(#SVGID_00000075124059255132122940000006143909382296174738_);}
	.st1{clip-path:url(#SVGID_00000119093268268301799640000015383449307270367917_);}
	.st2{clip-path:url(#SVGID_00000018219548302189357580000013177815742725622190_);}
	.st3{clip-path:url(#SVGID_00000160900934789687666430000011462593736007161230_);}
	.st4{clip-path:url(#SVGID_00000082330975715876326470000002425842505327911313_);}
	.st5{clip-path:url(#SVGID_00000157298836409701805180000016385225370269245630_);}
	.st6{clip-path:url(#SVGID_00000152942860874176505990000010385822048551503766_);}
	.st7{clip-path:url(#SVGID_00000080203269394072129700000015160559480034117766_);}
	.st8{clip-path:url(#SVGID_00000161627188665381600700000008746191251812717462_);}
	.st9{clip-path:url(#SVGID_00000172402804334648286650000015926188809713691316_);}
	.st10{clip-path:url(#SVGID_00000133505781912372192820000012790129150692092057_);}
	.st11{clip-path:url(#SVGID_00000027586205291805068640000014468292433158139814_);}
	.st12{fill:#F8F8F8;}
	.st13{clip-path:url(#SVGID_00000070085690134964773600000008541003275296822170_);}
	.st14{clip-path:url(#SVGID_00000001629648724935998680000003617517853998033298_);}
	.st15{clip-path:url(#SVGID_00000023999920063320166330000005645240780563708336_);}
	.st16{clip-path:url(#SVGID_00000047036052388546852300000000621060830278580621_);}
	.st17{clip-path:url(#SVGID_00000085933940737061542360000007172128305709048984_);}
	.st18{clip-path:url(#SVGID_00000167355313729677690770000013717197901054424739_);}
	.st19{fill:url(#SVGID_00000073682140572098046110000008896457861628030385_);}
	.st20{clip-path:url(#SVGID_00000150099987220681950310000015331363264342164353_);}
	.st21{clip-path:url(#SVGID_00000119104732321726393620000006453553553673105062_);}
	.st22{clip-path:url(#SVGID_00000040557908267861620140000012917922165880806531_);}
	.st23{clip-path:url(#SVGID_00000083064279686526337190000018264474230434228626_);}
	.st24{clip-path:url(#SVGID_00000161624610761396471590000010454242680818034825_);}
	.st25{clip-path:url(#SVGID_00000173154202252381106160000011587310453497995142_);}
	.st26{clip-path:url(#SVGID_00000154396134465126256680000016325248474445749655_);}
	.st27{clip-path:url(#SVGID_00000090268767438353073980000007942335718031798435_);}
	.st28{clip-path:url(#SVGID_00000145736537052219406890000014646774706239017093_);}
	.st29{clip-path:url(#SVGID_00000131368404669791737410000014523251522544121527_);}
	.st30{clip-path:url(#SVGID_00000139292357197050149390000003049659204066903698_);}
	.st31{clip-path:url(#SVGID_00000132067819483250098080000013080993880420368786_);}
	.st32{clip-path:url(#SVGID_00000072242497916543014780000003836030558111673534_);}
	.st33{clip-path:url(#SVGID_00000046314046573315484310000013170900310312988582_);}
	.st34{clip-path:url(#SVGID_00000027577159262599094680000002032849763299291580_);}
	.st35{clip-path:url(#SVGID_00000174580479934792713180000005485101400502151055_);}
	.st36{clip-path:url(#SVGID_00000044172363820880851450000017172402199408731790_);}
	.st37{clip-path:url(#SVGID_00000097459194100680816850000010577719206867731604_);}
	.st38{fill:url(#SVGID_00000011724782795796651510000014228096874228983961_);}
</style>
<g>
	<path class="st12" d="M495.47,227.36c-15.77-18.86-38.35-28.3-67.72-28.3c-40.2,0-67.57,15-82.1,45
		c-8.35,17.32-13.3,44.84-14.84,82.57H202.31c2.16-57.21,12.52-103.44,31.08-138.7c35.25-67.1,97.88-100.66,187.87-100.66
		c71.12,0,127.72,19.71,169.78,59.14c42.05,39.43,63.09,91.61,63.09,156.56c0,49.79-14.84,94.01-44.53,132.67
		c-19.48,25.67-51.49,54.27-96.02,85.82l-52.88,37.57c-33.09,23.5-55.74,40.52-67.96,51.03c-12.22,10.52-22.5,22.73-30.85,36.65
		h293.63v116.43H194.89c1.23-48.24,11.6-92.31,31.08-132.2c18.86-44.84,63.39-92.31,133.59-142.41
		c60.92-43.6,100.35-74.83,118.29-93.7c27.52-29.38,41.28-61.53,41.28-96.48C519.13,269.88,511.24,246.22,495.47,227.36z"/>
</g>
</svg>
